<?xml version="1.0" standalone="yes"?>
<svg xmlns="http://www.w3.org/2000/svg" width="226" height="223">
<path style="fill:#ffffff; stroke:none;" d="M0 0L0 223L111 223C105.825 214.062 95.3603 206.36 88 199C74.6713 185.671 60.2033 165.381 44 156L44 155C52.1922 150.257 64.2572 138.192 69 130L70 130C79.1716 145.842 98.9677 159.968 112 173L113 173C126.032 159.968 145.828 145.842 155 130L156 130C159.911 136.756 167.432 142.432 173 148C174.549 149.549 179 152.592 179 155C179 159.375 166.533 168.883 163.333 172.333C148.393 188.445 124.934 204.115 114 223L226 223L226 0L113 0L130 18L164 53L179 69L173 76L156 94L155 94C145.828 78.1582 126.032 64.0323 113 51L112 51C98.9677 64.0323 79.1716 78.1582 70 94L69 94C64.2572 85.8078 52.1922 73.7428 44 69L44 68C52.9383 62.8252 60.6397 52.3603 68 45C81.6271 31.3729 102.409 16.5665 112 0L0 0z"/>
<path style="fill:#fae5b4; stroke:none;" d="M112 0L114 2L112 0z"/>
<path style="fill:#f7d990; stroke:none;" d="M111 1C97.371 14.629 76.592 29.4319 67 46L101 13L111 1z"/>
<path style="fill:#f1b90b; stroke:none;" d="M112 1L64 49L45.5 68L50 75L69 92.6667L78 85L102 61L112 52L123 62L155 94L156 94L174 76L179.667 69L164 52L130 18L112 1z"/>
<path style="fill:#f7d990; stroke:none;" d="M114 2L115 3L114 2z"/>
<path style="fill:#fae5b4; stroke:none;" d="M115 3L116 4L115 3M116 4L117 5L116 4M117 5L118 6L117 5M118 6L119 7L118 6M119 7L120 8L119 7M120 8L121 9L120 8M121 9L122 10L121 9M122 10L123 11L122 10M123 11L124 12L123 11M124 12L125 13L124 12M125 13L126 14L125 13M126 14L127 15L126 14M127 15L128 16L127 15M128 16L129 17L128 16M129 17L130 18L129 17M130 18L131 19L130 18M131 19L132 20L131 19M132 20L133 21L132 20M133 21L134 22L133 21M134 22L135 23L134 22M135 23L136 24L135 23M136 24L137 25L136 24M137 25L138 26L137 25M138 26L139 27L138 26M139 27L140 28L139 27M140 28L141 29L140 28M141 29L142 30L141 29M142 30L143 31L142 30M143 31L144 32L143 31M144 32L145 33L144 32M145 33L146 34L145 33M146 34L147 35L146 34M147 35L148 36L147 35M148 36L149 37L148 36M149 37L150 38L149 37M150 38L151 39L150 38M151 39L152 40L151 39M152 40L153 41L152 40M153 41L154 42L153 41M154 42L155 43L154 42M155 43L156 44L155 43M156 44L157 45L156 44M157 45L158 46L157 45M66 46L67 47L66 46M158 46L159 47L158 46M65 47L66 48L65 47M159 47L160 48L159 47M64 48L65 49L64 48M160 48L161 49L160 48M63 49L64 50L63 49M161 49L162 50L161 49M62 50L63 51L62 50M61 51L62 52L61 51z"/>
<path style="fill:#f3c852; stroke:none;" d="M111 51L112 52L111 51z"/>
<path style="fill:#fae5b4; stroke:none;" d="M60 52L61 53L60 52z"/>
<path style="fill:#f3c852; stroke:none;" d="M110 52L111 53L110 52z"/>
<path style="fill:#fae5b4; stroke:none;" d="M59 53L60 54L59 53z"/>
<path style="fill:#f3c852; stroke:none;" d="M109 53L110 54L109 53z"/>
<path style="fill:#fae5b4; stroke:none;" d="M58 54L59 55L58 54z"/>
<path style="fill:#f3c852; stroke:none;" d="M108 54L109 55L108 54z"/>
<path style="fill:#fae5b4; stroke:none;" d="M57 55L58 56L57 55z"/>
<path style="fill:#f3c852; stroke:none;" d="M107 55L108 56L107 55z"/>
<path style="fill:#fae5b4; stroke:none;" d="M56 56L57 57L56 56z"/>
<path style="fill:#f3c852; stroke:none;" d="M106 56L107 57L106 56z"/>
<path style="fill:#fae5b4; stroke:none;" d="M55 57L56 58L55 57z"/>
<path style="fill:#f3c852; stroke:none;" d="M105 57L106 58L105 57z"/>
<path style="fill:#fae5b4; stroke:none;" d="M54 58L55 59L54 58z"/>
<path style="fill:#f3c852; stroke:none;" d="M104 58L105 59L104 58z"/>
<path style="fill:#fae5b4; stroke:none;" d="M53 59L54 60L53 59z"/>
<path style="fill:#f3c852; stroke:none;" d="M103 59L104 60L103 59z"/>
<path style="fill:#fae5b4; stroke:none;" d="M52 60L53 61L52 60z"/>
<path style="fill:#f3c852; stroke:none;" d="M102 60L103 61L102 60z"/>
<path style="fill:#fae5b4; stroke:none;" d="M51 61L52 62L51 61z"/>
<path style="fill:#f3c852; stroke:none;" d="M101 61L102 62L101 61z"/>
<path style="fill:#fae5b4; stroke:none;" d="M50 62L51 63L50 62z"/>
<path style="fill:#f3c852; stroke:none;" d="M100 62L101 63L100 62z"/>
<path style="fill:#fae5b4; stroke:none;" d="M49 63L50 64L49 63z"/>
<path style="fill:#f3c852; stroke:none;" d="M99 63L100 64L99 63z"/>
<path style="fill:#fae5b4; stroke:none;" d="M48 64L49 65L48 64z"/>
<path style="fill:#f3c852; stroke:none;" d="M98 64L99 65L98 64z"/>
<path style="fill:#fae5b4; stroke:none;" d="M47 65L48 66L47 65z"/>
<path style="fill:#f3c852; stroke:none;" d="M97 65L98 66L97 65z"/>
<path style="fill:#fae5b4; stroke:none;" d="M46 66L47 67L46 66z"/>
<path style="fill:#f3c852; stroke:none;" d="M96 66L97 67L96 66z"/>
<path style="fill:#fae5b4; stroke:none;" d="M45 67L46 68L45 67z"/>
<path style="fill:#f3c852; stroke:none;" d="M95 67L96 68L95 67z"/>
<path style="fill:#fae5b4; stroke:none;" d="M44 68L45 69L44 68z"/>
<path style="fill:#f3c852; stroke:none;" d="M94 68L95 69L94 68M93 69L94 70L93 69M92 70L93 71L92 70M91 71L92 72L91 71M90 72L91 73L90 72M89 73L90 74L89 73M88 74L89 75L88 74M87 75L88 76L87 75M86 76L87 77L86 76M85 77L86 78L85 77M84 78L85 79L84 78M83 79L84 80L83 79M82 80L83 81L82 80M81 81L82 82L81 81M80 82L81 83L80 82M79 83L80 84L79 83M78 84L79 85L78 84M77 85L78 86L77 85M76 86L77 87L76 86z"/>
<path style="fill:#fae5b4; stroke:none;" d="M25 87L1 112L20 94L25 87z"/>
<path style="fill:#f1b90b; stroke:none;" d="M26 87L2.5 111L7 118L27 137L51 112L51 111L26 87z"/>
<path style="fill:#f3c852; stroke:none;" d="M75 87L76 88L75 87z"/>
<path style="fill:#fae5b4; stroke:none;" d="M111 87L87 112L106 94L111 87z"/>
<path style="fill:#f1b90b; stroke:none;" d="M112 87L94 105L88.3333 112L94 119L112 137L113 137L137 113C134.67 104.951 119.225 91.1831 112 87z"/>
<path style="fill:#fae5b4; stroke:none;" d="M197 87L191 94L197 87z"/>
<path style="fill:#f1b90b; stroke:none;" d="M198 87L180 105L174.333 112L180 119L198 137L199 137L222.5 113L218 106L198 87z"/>
<path style="fill:#fae5b4; stroke:none;" d="M199 87L200 88L199 87z"/>
<path style="fill:#f3c852; stroke:none;" d="M74 88L75 89L74 88z"/>
<path style="fill:#fae5b4; stroke:none;" d="M200 88L201 89L200 88z"/>
<path style="fill:#f3c852; stroke:none;" d="M73 89L74 90L73 89z"/>
<path style="fill:#fae5b4; stroke:none;" d="M201 89L202 90L201 89z"/>
<path style="fill:#f3c852; stroke:none;" d="M72 90L73 91L72 90z"/>
<path style="fill:#fae5b4; stroke:none;" d="M202 90L203 91L202 90z"/>
<path style="fill:#f3c852; stroke:none;" d="M71 91L72 92L71 91z"/>
<path style="fill:#fae5b4; stroke:none;" d="M203 91L204 92L203 91z"/>
<path style="fill:#f3c852; stroke:none;" d="M70 92L71 93L70 92z"/>
<path style="fill:#fae5b4; stroke:none;" d="M204 92L205 93L204 92z"/>
<path style="fill:#f7d990; stroke:none;" d="M69 93L70 94L69 93z"/>
<path style="fill:#fae5b4; stroke:none;" d="M205 93L206 94L205 93M206 94L207 95L206 94M189 95L190 96L189 95z"/>
<path style="fill:#f3c852; stroke:none;" d="M50 112L51 113L50 112M49 113L50 114L49 113M135 113L136 114L135 113M48 114L49 115L48 114M47 115L48 116L47 115M133 115L134 116L133 115M46 116L47 117L46 116M45 117L46 118L45 117M131 117L132 118L131 117M44 118L45 119L44 118M43 119L44 120L43 119M42 120L43 121L42 120M41 121L42 122L41 121M40 122L41 123L40 122M39 123L40 124L39 123z"/>
<path style="fill:#fae5b4; stroke:none;" d="M13 124L14 125L13 124z"/>
<path style="fill:#f3c852; stroke:none;" d="M38 124L39 125L38 124M37 125L38 126L37 125z"/>
<path style="fill:#fae5b4; stroke:none;" d="M15 126L16 127L15 126z"/>
<path style="fill:#f3c852; stroke:none;" d="M36 126L37 127L36 126z"/>
<path style="fill:#fae5b4; stroke:none;" d="M16 127L17 128L16 127z"/>
<path style="fill:#f3c852; stroke:none;" d="M35 127L36 128L35 127z"/>
<path style="fill:#fae5b4; stroke:none;" d="M17 128L18 129L17 128z"/>
<path style="fill:#f3c852; stroke:none;" d="M34 128L35 129L34 128z"/>
<path style="fill:#fae5b4; stroke:none;" d="M18 129L19 130L18 129z"/>
<path style="fill:#f3c852; stroke:none;" d="M33 129L34 130L33 129z"/>
<path style="fill:#fae5b4; stroke:none;" d="M19 130L20 131L19 130z"/>
<path style="fill:#f3c852; stroke:none;" d="M32 130L33 131L32 130M69 130L85 147L112 173L96 156L69 130M155 130L156 131L155 130z"/>
<path style="fill:#fae5b4; stroke:none;" d="M20 131L21 132L20 131z"/>
<path style="fill:#f3c852; stroke:none;" d="M31 131L32 132L31 131z"/>
<path style="fill:#f1b90b; stroke:none;" d="M112 223L113 223L180 156L170 144L156 131.167L145 140L121 164L112 172L102 163L78 139L69 131.333L50 149L45.5 156L64 175L112 223z"/>
<path style="fill:#fae5b4; stroke:none;" d="M21 132L22 133L21 132z"/>
<path style="fill:#f3c852; stroke:none;" d="M30 132L31 133L30 132z"/>
<path style="fill:#fae5b4; stroke:none;" d="M22 133L23 134L22 133z"/>
<path style="fill:#f3c852; stroke:none;" d="M29 133L30 134L29 133z"/>
<path style="fill:#fae5b4; stroke:none;" d="M23 134L24 135L23 134z"/>
<path style="fill:#f3c852; stroke:none;" d="M28 134L29 135L28 134z"/>
<path style="fill:#fae5b4; stroke:none;" d="M24 135L25 136L24 135M25 136L26 137L25 136z"/>
<path style="fill:#f3c852; stroke:none;" d="M175 150L176 151L175 150M176 151L177 152L176 151M177 152L178 153L177 152M178 153L179 154L178 153M179 154L180 155L179 154z"/>
<path style="fill:#fae5b4; stroke:none;" d="M44 155L45 156L44 155M45 156L46 157L45 156M46 157L47 158L46 157M47 158L48 159L47 158M48 159L49 160L48 159M49 160L50 161L49 160M50 161L51 162L50 161M51 162L52 163L51 162M52 163L53 164L52 163M53 164L54 165L53 164M54 165L55 166L54 165M55 166L56 167L55 166M56 167L57 168L56 167M57 168L58 169L57 168M58 169L59 170L58 169M166 169L167 170L166 169M59 170L60 171L59 170M60 171L61 172L60 171M164 171L165 172L164 171M61 172L62 173L61 172M62 173L63 174L62 173M162 173L163 174L162 173M63 174L64 175L63 174M161 174L162 175L161 174M64 175L65 176L64 175M160 175L161 176L160 175M65 176L66 177L65 176M159 176L160 177L159 176M66 177L67 178L66 177M158 177L159 178L158 177M67 178L68 179L67 178M157 178L158 179L157 178M68 179L69 180L68 179M156 179L157 180L156 179M69 180L70 181L69 180M155 180L156 181L155 180M70 181L71 182L70 181M154 181L155 182L154 181M71 182L72 183L71 182M153 182L154 183L153 182M72 183L73 184L72 183M152 183L153 184L152 183M73 184L74 185L73 184M151 184L152 185L151 184M74 185L75 186L74 185M150 185L151 186L150 185M75 186L76 187L75 186M149 186L150 187L149 186M76 187L77 188L76 187M148 187L149 188L148 187M77 188L78 189L77 188M147 188L148 189L147 188M78 189L79 190L78 189M146 189L147 190L146 189M79 190L80 191L79 190M145 190L146 191L145 190M80 191L81 192L80 191M144 191L145 192L144 191M81 192L82 193L81 192M143 192L144 193L143 192M82 193L83 194L82 193M142 193L143 194L142 193M83 194L84 195L83 194M141 194L142 195L141 194M84 195L85 196L84 195M140 195L141 196L140 195M85 196L86 197L85 196M139 196L140 197L139 196M86 197L87 198L86 197M138 197L139 198L138 197M87 198L88 199L87 198M137 198L138 199L137 198M88 199L89 200L88 199M136 199L137 200L136 199M89 200L90 201L89 200M135 200L136 201L135 200M90 201L91 202L90 201M134 201L135 202L134 201M91 202L92 203L91 202M133 202L134 203L133 202M92 203L93 204L92 203M132 203L133 204L132 203M93 204L94 205L93 204M131 204L132 205L131 204M94 205L95 206L94 205M130 205L131 206L130 205M95 206L96 207L95 206M129 206L130 207L129 206M96 207L97 208L96 207M128 207L129 208L128 207M97 208L98 209L97 208M127 208L128 209L127 208M98 209L99 210L98 209M126 209L127 210L126 209M99 210L100 211L99 210M125 210L126 211L125 210M100 211L101 212L100 211M124 211L125 212L124 211M101 212L102 213L101 212M123 212L124 213L123 212M102 213L103 214L102 213M122 213L123 214L122 213M103 214L104 215L103 214M121 214L122 215L121 214M104 215L105 216L104 215M120 215L121 216L120 215M105 216L106 217L105 216M119 216L120 217L119 216M106 217L107 218L106 217M118 217L119 218L118 217M107 218L108 219L107 218M117 218L118 219L117 218M108 219L109 220L108 219M116 219L117 220L116 219M109 220L110 221L109 220M115 220L116 221L115 220M110 221L111 222L110 221M114 221L115 222L114 221M111 222L112 223L111 222M113 222L114 223L113 222z"/>
</svg>
