<svg xmlns="http://www.w3.org/2000/svg" xmlns:xlink="http://www.w3.org/1999/xlink" version="1.1" width="1000" height="1000" viewBox="0 0 1000 1000" xml:space="preserve">
<desc>Created with Fabric.js 3.5.0</desc>
<defs>
</defs>
<rect x="0" y="0" width="100%" height="100%" fill="#ffffff"/>
<g transform="matrix(5.0792 0 0 4.8403 497.8764 497.984)" id="284008">
<path style="stroke: none; stroke-width: 0; stroke-dasharray: none; stroke-linecap: butt; stroke-dashoffset: 0; stroke-linejoin: miter; stroke-miterlimit: 4; is-custom-font: none; font-file-url: none; fill: rgb(240,185,11); fill-rule: nonzero; opacity: 1;" transform=" translate(-350, -289.4734)" d="m 298.83515 289.47331 l -20.8923 20.90015 l -21.0941 -20.90015 l 21.0864 -21.08621 z m 51.0757 -51.0755 l 35.9841 35.98399 l 21.0938 -21.07854 l -57.0779 -56.8918 l -57.078 57.078 l 21.0938 21.0785 z m 71.9757 29.98929 l -20.9004 21.08621 l 21.0864 21.08634 l 21.0787 -21.08634 z m -71.9757 72.16188 l -35.9842 -36.17019 l -21.0938 21.08631 l 57.078 57.07019 l 57.0779 -57.078 l -21.0938 -21.0785 z m 0 -30.16768 l 21.086 -21.09398 l -21.086 -20.89252 l -21.0861 21.07851 l 21.0861 20.90015 z" stroke-linecap="round"/>
</g>
</svg>